<?xml version="1.0" encoding="utf-8"?>
<!-- Generator: Adobe Illustrator 25.0.0, SVG Export Plug-In . SVG Version: 6.00 Build 0)  -->
<svg version="1.1" id="Слой_1" xmlns="http://www.w3.org/2000/svg" xmlns:xlink="http://www.w3.org/1999/xlink" x="0px" y="0px"
	 viewBox="0 0 345.8 172.3" style="enable-background:new 0 0 345.8 172.3;" xml:space="preserve">
<style type="text/css">
	.st0{fill:#1BB3D7;stroke:#1BB3D7;stroke-width:3;stroke-miterlimit:10;}
	.st1{fill:#1BB3D7;stroke:#1BB3D7;stroke-width:4;stroke-miterlimit:10;}
	.st2{fill:#1BB3D7;}
</style>
<g>
	<g>
		<path class="st0" d="M5,156.3H1.5v-49.8h34.2v49.8h-3.5v-46.5H5V156.3z"/>
		<path class="st0" d="M79.3,140.2c0,4.8-1.4,8.7-4.3,11.9c-2.9,3.2-6.5,4.8-10.7,4.8c-2.2,0-4.3-0.5-6.2-1.5s-3.5-2.5-4.8-4.4v19.8
			h-3.4v-46.6h2.7l0.5,5.4c1.3-1.9,2.9-3.4,4.9-4.5c1.9-1.1,4-1.6,6.3-1.6c4.3,0,7.9,1.6,10.7,4.8C77.8,131.6,79.3,135.5,79.3,140.2
			z M64.2,126.9c-3.2,0-6,1.3-8.2,3.9c-2.2,2.6-3.3,5.7-3.3,9.5s1.1,7,3.3,9.5c2.2,2.6,5,3.9,8.2,3.9c3.3,0,6-1.3,8.2-3.9
			s3.3-5.7,3.3-9.5s-1.1-7-3.3-9.5C70.3,128.1,67.5,126.9,64.2,126.9z"/>
		<path class="st0" d="M116.9,140.2c0,4.8-1.4,8.8-4.3,12c-2.8,3.2-6.4,4.8-10.7,4.8s-7.9-1.6-10.7-4.8c-2.8-3.2-4.3-7.2-4.3-12
			s1.4-8.8,4.3-12c2.8-3.2,6.4-4.8,10.7-4.8s7.9,1.6,10.7,4.8C115.5,131.5,116.9,135.4,116.9,140.2z M90.4,140.2
			c0,3.8,1.1,7,3.3,9.6c2.2,2.5,4.9,3.8,8.2,3.8s6-1.3,8.2-3.8c2.2-2.5,3.3-5.7,3.3-9.6c0-3.8-1.1-7-3.2-9.6
			c-2.2-2.5-4.9-3.8-8.2-3.8s-6.1,1.3-8.2,3.8C91.5,133.2,90.4,136.4,90.4,140.2z"/>
		<path class="st0" d="M153.6,142.6c0-3.3-1.2-6-3.7-8s-5.6-3-9.5-3h-7v-3.4h7c3.2,0,5.9-0.9,8-2.6c2.1-1.7,3.1-4,3.1-6.9
			s-1-5.1-2.9-6.8s-4.4-2.5-7.5-2.5c-2.6,0-5,0.6-7.3,1.8c-2.3,1.2-4.3,2.9-6.1,5.1l-2.2-2.4c2-2.6,4.3-4.5,7-5.9s5.5-2.1,8.6-2.1
			c4.1,0,7.4,1.2,10.1,3.5c2.6,2.4,3.9,5.5,3.9,9.4c0,2.7-0.7,5-2.2,6.9c-1.4,1.9-3.5,3.3-6.1,4.3c3.3,1,5.8,2.6,7.6,4.8
			c1.8,2.2,2.7,4.9,2.7,8c0,4.4-1.5,7.9-4.5,10.5c-3,2.6-6.8,3.9-11.5,3.9c-3.3,0-6.3-0.7-9.1-2.1c-2.8-1.4-5.2-3.4-7.2-5.9l2.5-2.5
			c1.7,2.2,3.8,3.9,6.1,5.1c2.4,1.2,5,1.8,7.7,1.8c3.6,0,6.6-1,8.9-2.9C152.5,148.5,153.6,145.9,153.6,142.6z"/>
		<path class="st1" d="M192.5,156.3h-3.4v-15h-18v15h-3.4v-32h3.4V138h18v-13.7h3.4V156.3z"/>
		<path class="st0" d="M231.8,156.3h-2.7l-0.5-5.4c-1.3,1.9-2.9,3.4-4.9,4.5c-1.9,1.1-4,1.6-6.3,1.6c-4.3,0-7.9-1.6-10.7-4.8
			c-2.9-3.2-4.3-7.2-4.3-11.9c0-4.8,1.4-8.7,4.3-11.9s6.5-4.8,10.7-4.8c2.2,0,4.3,0.5,6.3,1.6c1.9,1.1,3.6,2.6,4.9,4.5l0.5-5.4h2.7
			V156.3z M205.9,140.2c0,3.8,1.1,7,3.3,9.5c2.2,2.6,4.9,3.9,8.2,3.9c3.2,0,6-1.3,8.2-3.9s3.3-5.7,3.3-9.5s-1.1-7-3.3-9.5
			c-2.2-2.6-5-3.9-8.2-3.9c-3.3,0-6,1.3-8.2,3.9C207,133.3,205.9,136.5,205.9,140.2z"/>
		<path class="st0" d="M268.7,156.3h-3.4v-15h-18v15h-3.4v-32h3.4V138h18v-13.7h3.4V156.3z"/>
		<path class="st0" d="M305.9,156.3h-3.2v-26.9l-18.6,26.9h-3.2v-32h3.2v27l18.6-27h3.2V156.3z"/>
		<path class="st0" d="M340.1,149.6l2.2,2.4c-1.5,1.7-3.2,2.9-5,3.7c-1.8,0.8-3.9,1.2-6.2,1.2c-4.4,0-8-1.6-10.9-4.8
			c-2.9-3.2-4.4-7.2-4.4-12s1.4-8.7,4.2-11.9c2.8-3.2,6.3-4.8,10.4-4.8c4,0,7.3,1.6,10,4.8c2.6,3.2,3.9,7.2,3.9,12
			c0,0.2,0,0.4,0,0.6c0,0.2,0,0.4-0.1,0.5h-25c0.2,3.5,1.4,6.5,3.6,8.8s4.9,3.5,8.2,3.5c1.8,0,3.4-0.3,4.9-1
			C337.5,151.9,338.8,150.9,340.1,149.6z M330.4,126.9c-2.9,0-5.3,1.1-7.4,3.2c-2,2.1-3.3,4.8-3.7,8.1h21.5
			c-0.4-3.3-1.5-6.1-3.4-8.1C335.4,127.9,333.1,126.9,330.4,126.9z"/>
	</g>
	<g>
		<g>
			<polygon class="st2" points="118.2,77.6 75.4,55.1 77.3,51.8 			"/>
		</g>
		<g>
			<polygon class="st2" points="139.6,56.1 113.4,15.5 117.5,13.1 			"/>
		</g>
		<g>
			<polygon class="st2" points="169,48.1 166.1,0 171.8,0 			"/>
		</g>
		<g>
			<polygon class="st2" points="198.6,55.6 219.2,12.4 225.7,16.2 			"/>
		</g>
		<g>
			<polygon class="st2" points="219.9,77.5 259.2,49.4 263.9,57.5 			"/>
		</g>
		<g>
			<polygon class="st2" points="227.9,106.9 275.9,101.3 275.9,112.5 			"/>
		</g>
		<g>
			<polygon class="st2" points="110.6,106.9 62,107.9 62,106 			"/>
		</g>
	</g>
</g>
</svg>
